<svg version="1.2" xmlns="http://www.w3.org/2000/svg" viewBox="0 0 450 450" width="450" height="450">
	<style>
		.s0 { fill: #d4af37 } 
	</style>
	<g id="Layer 1">
		<g id="&lt;Group&gt;">
			<path id="&lt;Path&gt;" class="s0" d="m272.97 125.52q0 0-0.01 0 0 0 0.01 0.01 0.03 0.04 0-0.01z"/>
			<path id="&lt;Path&gt;" class="s0" d="m272.62 118.7c-0.51-0.51-0.72-1.07-0.95-1.71-0.31 1.36-0.18 2.62 0.06 4.29 0.23 1.6 0.35 2.98 1.23 4.24-0.21-0.72-0.19-1.62 0.12-2.3 0.53-1.13 1.9-2.18 0.88-3.53-0.34-0.45-0.93-0.59-1.34-0.99z"/>
			<path id="&lt;Path&gt;" class="s0" d="m280.47 122.71c-0.96 0.72-1.09 1.65-2.12 2.17-0.71 0.35-1.16-0.11-2.82 0.93 1.12 0.08 4.56-0.28 5.75-0.4 2.08-0.21 4.17-0.37 6.26-0.65 0.79-0.11 1.38-0.83 1.38-1.68-0.01-2.41-0.12-7.25-0.27-8.43-0.44 3.98-1.07 5.34-1.78 6.26-0.94 1.23-2.16 1.77-3.52 1.32-1.11-0.37-1.88-0.27-2.88 0.48z"/>
			<path id="&lt;Path&gt;" class="s0" d="m291.39 124.15c3.08-0.23 10.08-0.76 10.12-0.87 0.05-0.14-0.57-7.87-0.57-7.87-1.08 2.76-0.52 4.47-5.6 4.26-4.95-0.22-3.68-2.2-5.75-4.49l0.31 7.53c0.03 0.85 0.7 1.5 1.49 1.44z"/>
			<path id="&lt;Path&gt;" class="s0" d="m299.12 115.74c0.41 0.01 0.75-0.33 0.76-0.76 0-0.42-0.33-0.77-0.74-0.78-0.41 0-0.75 0.34-0.75 0.76-0.01 0.42 0.32 0.77 0.73 0.78z"/>
			<path id="&lt;Path&gt;" class="s0" d="m146.53 383.84c-5.09-1.49-10.08-3.42-14.84-5.76-5.72-2.81-11.3-6.45-15.54-11.26-1.07-1.22-2.08-2.57-2.96-4-0.42 1.82 2.91 7.7 1.69 10.11-1.14 2.26-2.72 3.5-7.3 1.99 1.79 1.94 3.79 3.7 5.86 5.29 3.89 2.98 8.15 5.46 12.59 7.58 2.79-1.52 6.81-1.79 9.72-1.64 4.53 0.25 12.7 1.64 15.82-0.95q-2.54-0.63-5.04-1.36z"/>
			<path id="&lt;Path&gt;" class="s0" d="m166.65 388.1c-0.7-0.1-2.27-0.66-2.93-0.38-0.53 0.23-0.91 1.12-1.36 1.55-4.25 4.08-9.55 3.21-12.14 6.88 0.19-0.37 5.62 1.08 6.13 1.17 6.62 1.25 13.32 2.05 20.04 2.49 4.13-5.85 11.71-4.98 10.73-10.25-6.85-0.1-13.68-0.54-20.47-1.46z"/>
			<path id="&lt;Path&gt;" class="s0" d="m177.41 289.08c-1.89 0-3.43 1.66-3.43 3.69q0.01 0.25 0.04 0.49c0.32-1.42 1.51-2.48 2.93-2.48 1.66 0 3.01 1.45 3.01 3.25q-0.01 0.88-0.4 1.6c0.77-0.67 1.27-1.7 1.27-2.86 0-2.03-1.53-3.69-3.42-3.69z"/>
			<path id="&lt;Path&gt;" class="s0" d="m139.36 362.74c-3.54 1.06-6.13 2.68-7.98 4.31-1.68 1.48-1.41 4.16 0.55 5.23 3 1.62 7.27 3.68 10.81 4.58-3.21-3.3-0.04-7.57 1.83-9.03 8.08-6.29 29.86-8.17 26.21-20.79 0.41 10.6-19.18 12.03-31.42 15.7z"/>
			<path id="&lt;Path&gt;" class="s0" d="m128.51 389.01c0 0 4.32 1.76 7.18 2.74 0.91-1.24 2.21-2.28 6.25-3.32-8.85-1.63-13.43 0.58-13.43 0.58z"/>
			<path id="&lt;Path&gt;" class="s0" d="m192.48 399.81l7.57-0.17c0 0 5.97-6.19 5.88-10.73-4.94 5.4-13.45 10.9-13.45 10.9z"/>
			<path id="&lt;Compound Path&gt;" class="s0" d="m405.35 330.87c-0.59-1.34-1.92-2.21-3.39-2.21q-0.62 0-1.2 0.21c-3.31 1.13-9.83 3.26-16.33 4.7-2.53 0.57-5.43 0.85-8.6 0.85-8.42 0-16.16-1.97-18.33-2.57-6.09-1.69-45.13-15.08-49.76-16.88-3.81-1.47-4.68-2.87-4.68-7.46 0-4.14-3.46-53.93-4.58-70.01 1.57-0.66 2.48-1.04 2.56-1.07l8.23-4.03c7.65-4.03 13.68-7.21 14.28-13.85 0.26-2.84 0.19-4.62 0.09-7.31-0.12-3.1-0.28-7.33-0.1-15.85 0.37-17.01-7.56-19.42-20.67-21.37-13.13-1.95-59.48-4.56-67.12-4.87-3-0.12-5.91-0.22-8.67-0.22-5.55 0-9.89 0.43-14.52 1.46-0.6 0.14-1.65 0.37-3.05 0.68-2.76-8.32-0.03-19.99 5.3-26.56 5.61-6.89 16.42-10.14 19.6-10.97 18.85-1.9 36.2-3.7 36.53-3.73 2.04-0.23 3.02-0.85 3.49-1.34 3.93-0.3 15.59-1.21 16.61-1.31 0.68-0.06 3.31-0.37 5.84-0.68 1.94-0.23 3.8-0.45 4.61-0.54 2.75-0.3 2.52-2.52 2.41-3.59l-0.17-1.8c-0.14-1.57-0.35-3.82-0.54-5.83-0.15-1.65-0.49-3.4-2.59-3.4q-0.42 0.01-0.9 0.06-0.2 0.02-0.43 0.04c-1.5 0.12-16.04 0.83-20.42 1.04-2.63-1.34-4.93-1.62-7.95-1.62-1.57 0-3.37 0.08-5.65 0.18l-0.82 0.04c-7.26 0.32-64.47 7.55-71.75 8.79-3.71-13.04-11.31-37.01-16.14-45.39-5.81-10.08-13.92-11.38-20.34-11.38-2.02 0-10.12 0.34-17.44 0.67 1.6-2.12 2.2-4.22 2.75-6.13q0.16-0.55 0.32-1.09c1.15-3.73-1.21-10.79-3.93-17.86-2.82-7.34-7.09-7.69-10.2-7.95l-0.06-0.01c-2.13-0.17-14.58-0.71-25.57-0.71-4.72 0-8.43 0.1-11.04 0.3-10.65 0.83-13.65 2.96-17.01 6.11-3 2.82-3.4 7.85-1.07 13.45 1 2.4 2.31 5.72 3.71 9.24 0.97 2.48 1.98 5.03 3 7.56q-0.81 0.05-1.14 0.07c-4.68 0.38-8.59 2.12-11.45 3.39l-1.44 0.63c-2.84 1.26-6.39 2.83-10.4 4.76-5.13 2.47-6.75 5.53-5.59 10.55 0.08 0.38 8.19 34.87 12.13 52.16-1.89 0.35-3.45 0.67-4.58 0.93-8.28 1.91-13.35 4.63-14.65 7.88-1 2.47-0.54 9 2.13 12.96 1.5 2.22 3.52 3.4 5.86 3.4q0.29 0 0.58-0.02c0.6-0.05 1.58-0.15 2.86-0.29q-0.4 1.24-0.45 2.64l-0.02 0.31c-0.27 8.01-0.92 26.78 7.09 53.3 8.05 26.63 13.95 29.71 24.65 35.31l0.6 0.32c5.61 2.94 25.92 12.52 51.65 12.52q1.03-0.01 2.07-0.04l29.66 9.88v13.65l-37.59 8.91c-1.32-1.42-3.19-2.32-5.28-2.32-3.97 0-7.2 3.24-7.2 7.21 0 3.97 3.23 7.2 7.2 7.2 3.2 0 5.91-2.09 6.85-4.97l36.02-8.54v15.95q-0.55 0.06-1.1 0.12-0.92 0.1-1.83 0.21-1.41 0.16-2.8 0.34-0.86 0.12-1.7 0.24-1.44 0.2-2.85 0.42-0.81 0.13-1.61 0.26-1.43 0.24-2.84 0.5-0.78 0.15-1.56 0.3-1.41 0.28-2.8 0.57-0.77 0.17-1.53 0.34-1.37 0.3-2.73 0.63-0.78 0.19-1.55 0.39-1.31 0.33-2.59 0.68-0.81 0.22-1.6 0.45-1.23 0.35-2.44 0.71-0.84 0.26-1.67 0.53-1.15 0.36-2.27 0.74-0.87 0.3-1.74 0.61-1.05 0.37-2.08 0.75-0.91 0.35-1.8 0.71-0.97 0.37-1.91 0.76-0.92 0.39-1.82 0.78-0.9 0.39-1.78 0.79-0.9 0.41-1.78 0.84-0.66 0.31-1.31 0.62-0.3 0.15-0.59 0.3-0.1 0.05-0.19 0.1-0.21 0.1-0.42 0.21-0.48 0.25-0.95 0.5-0.35 0.18-0.69 0.37-0.5 0.27-0.99 0.54-0.3 0.17-0.6 0.34-0.52 0.29-1.03 0.59-0.25 0.15-0.5 0.3-0.55 0.33-1.09 0.66-0.19 0.12-0.39 0.24-0.58 0.36-1.14 0.73-0.14 0.09-0.28 0.18-0.61 0.4-1.2 0.8-0.09 0.06-0.18 0.12-0.63 0.44-1.24 0.88-0.04 0.03-0.08 0.06c-9.5 6.86-15.31 14.82-16.93 23.25q0 0.03-0.01 0.06-0.11 0.57-0.19 1.14-0.01 0.13-0.03 0.26-0.07 0.48-0.11 0.96-0.02 0.25-0.04 0.49-0.03 0.37-0.05 0.73-0.03 0.61-0.03 1.23c0 13.3 10.28 25.74 28.95 35.04 18.43 9.18 42.92 14.23 68.96 14.23 26.03 0 50.52-5.05 68.96-14.23 5.47-2.72 10.21-5.72 14.19-8.93q1.69 0.56 3.3 1.09v15.69c-1.39 0.76-2.23 1.85-2.23 3.1v7.04c0 2.41 3.12 4.23 7.26 4.23 4.14 0 7.27-1.82 7.27-4.23v-7.04c0-1.25-0.85-2.34-2.24-3.1v-12.45c2.24 0.71 4.05 1.26 5.28 1.61 4.08 1.16 8.81 1.74 14.07 1.74 9.67 0 18.39-1.99 20.84-2.6 5.64-1.41 10.66-3.56 14.9-6.39 3.77-2.51 55.89-39.61 66.3-47.02 1.44-1.02 1.96-2.92 1.24-4.53zm-51.32 44.32c-4.07 1.54-8.62 2.54-8.34-0.04 0.44-4.05 12.92-13.82 12.92-13.82 0 0-20.54 13.2-23.64 15.36-3.1 2.16-2.47 1.92-1.89 3.57 0.47 1.34 2.17 5.42 2.95 7.3q-1.16 0.63-2.39 1.21l-3.75-9.03-10.59 2.43c0 0 4.46 0.42 5.63 6.36 0.28 1.38 0.5 2.41 0.67 3.14q-0.46 0.13-0.92 0.25-0.66 0.16-1.89 0.44c-0.26-4.19-1.42-6.38-2.8-7.39 0 4.02-2.1 6.98-3.53 8.54-3.48 0.52-7.69 0.95-12.11 0.95q-1.38-0.01-2.69-0.06c-3.04-1.46-2.73-5.58-1.73-6.81 1.18-1.43 5.67-1.88 7.65-3.23-8.23 1.15-15.13 0.23-21.84-1.77 0 0 3.11 1.83 5.75 3.29 1.19 0.65 2.41 2.96 0.33 4.79-1.33 1.16-3.61 1.05-5.74 0.68-5.1-1.61-12.65-4.08-20.65-6.73l3.08-5.31-5.29 4.48c-0.87-0.72-1.53-1.63-0.64-2.42 1.79-1.6 5.72-4.23 9.06-3.81-5.4-2.18-12.46-4.63-12.46-4.63 2.61 1.22 3.64 3.25 1.73 4.84-1.67 1.39-4 3.36-6.85 3.06-3.73-1.25-7.35-2.46-10.66-3.57-0.36-1.44-0.69-3.81 0.46-5.26 1.74-2.17 8.93-1.35 8.93-1.35l-13.92-5.55q-0.28-0.54-0.67-1.07c1.62 0.48 2.82 0.84 3.34 1.03 2.73 0.99 41.26 16.47 53.06 18.1 8.67 1.2 15.75 0.22 19.79-0.57-1.57 0.26-4.74-0.11-7.49-1.28q6.15-3.52 12.22-7.17 14.53-8.72 28.76-17.92c8.26-5.34 16.49-10.75 24.55-16.4q-6.54 3.72-12.98 7.59-14.45 8.69-28.6 17.83c-8.1 5.21-16.15 10.51-24.04 16.02-0.94-0.41-1.83-0.92-2.58-1.53q4.86-2.79 9.67-5.65 14.65-8.72 29.01-17.9c8.27-5.3 16.5-10.66 24.56-16.27q-6.56 3.7-13.04 7.56-14.57 8.68-28.86 17.82c-7.56 4.84-15.09 9.74-22.5 14.83q-1.17 0.7-2.35 1.4 1.52-1.11 3.05-2.2c-0.63-0.6-1.14-1.3-1.44-2.09q3.78-2.17 7.53-4.38 14.71-8.67 29.13-17.82c8.31-5.27 16.59-10.61 24.69-16.19q-6.59 3.68-13.1 7.52-14.64 8.63-28.99 17.73c-7.38 4.68-14.72 9.42-21.95 14.32q-2.16 1.28-4.34 2.53 3.37-2.38 6.77-4.71-0.08-0.51-0.05-1.08 0.02-0.43 0.05-1.12 1.86-1.07 3.71-2.15 14.74-8.61 29.19-17.68c8.38-5.27 16.72-10.6 24.89-16.18q-6.63 3.66-13.16 7.48-14.66 8.57-29.04 17.6-8.77 5.48-17.41 11.16-4.52 2.64-9.08 5.2 5.44-3.74 10.96-7.37 0.02-0.79 0.04-1.73 14.27-8.27 28.27-16.99c8.42-5.24 16.8-10.55 25.01-16.11q-6.65 3.65-13.22 7.45-14.72 8.53-29.17 17.52-7.28 4.51-14.47 9.15-5.92 3.42-11.91 6.71c5.12-3.47 10.32-6.83 15.54-10.15q0.02-0.93 0.04-1.93 11.91-6.93 23.64-14.16c8.43-5.2 16.82-10.47 25.05-15.98q-6.71 3.63-13.32 7.43-14.73 8.45-29.18 17.36-7.38 4.53-14.68 9.19-5.92 3.39-11.91 6.65c6.73-4.51 13.57-8.86 20.45-13.14q0.02-0.77 0.03-1.58 9.6-5.59 19.07-11.38c8.47-5.18 16.9-10.42 25.17-15.92q-6.73 3.62-13.37 7.4-14.8 8.41-29.32 17.28-7.43 4.52-14.78 9.17-5.93 3.37-11.93 6.6c8.28-5.5 16.72-10.76 25.21-15.94q0.01-0.65 0.02-1.32 7.36-4.29 14.64-8.71c8.51-5.16 16.98-10.37 25.29-15.85q-6.76 3.6-13.43 7.36-14.86 8.37-29.45 17.2-7.48 4.51-14.89 9.15-5.94 3.34-11.95 6.55c8.48-5.58 17.13-10.91 25.81-16.16q2.01-1.21 4.03-2.42 0.01-0.58 0.02-1.16 5.13-3 10.22-6.05c8.58-5.15 17.12-10.36 25.5-15.83q-6.75 3.56-13.41 7.28-14.92 8.32-29.58 17.1-7.59 4.54-15.1 9.21-5.94 3.3-11.94 6.47c8.55-5.57 17.26-10.9 26.02-16.14q4.16-2.48 8.34-4.94 0.01-0.53 0.02-1.06 2.95-1.72 5.88-3.47c8.65-5.13 17.26-10.34 25.7-15.81q-6.81 3.56-13.55 7.29-14.99 8.28-29.71 17.03-7.6 4.5-15.12 9.13-5.95 3.28-11.96 6.43c8.56-5.54 17.28-10.82 26.05-16.02q6.36-3.77 12.76-7.46 0.01-0.51 0.02-1.03 0.84-0.49 1.68-0.98c8.69-5.12 17.33-10.31 25.82-15.74q-6.85 3.54-13.61 7.24-15.05 8.24-29.85 16.95-7.65 4.49-15.23 9.12-5.95 3.25-11.97 6.37c8.61-5.51 17.37-10.77 26.18-15.95q8.47-4.98 17.03-9.81 0.01-0.54 0.02-1.08c7.89-4.62 15.74-9.31 23.45-14.21q-6.87 3.52-13.66 7.21-15.13 8.2-29.99 16.87-7.71 4.48-15.34 9.1-5.96 3.22-11.98 6.32c8.64-5.49 17.45-10.73 26.3-15.88q10.57-6.16 21.27-12.09 0.02-0.59 0.03-1.17c6.52-3.82 13.01-7.7 19.4-11.73q-6.92 3.52-13.76 7.2-15.17 8.14-30.08 16.76-7.76 4.47-15.45 9.08-5.96 3.2-12 6.27c8.69-5.47 17.54-10.68 26.42-15.81q12.67-7.31 25.53-14.29 0.01-0.69 0.03-1.35 7.73-4.51 15.33-9.24-6.95 3.5-13.82 7.16-15.24 8.1-30.22 16.68-7.82 4.46-15.56 9.07-5.97 3.17-12 6.2c8.72-5.44 17.61-10.62 26.54-15.73q14.77-8.45 29.79-16.45 0.02-0.81 0.04-1.58 5.64-3.31 11.21-6.75-5.62 2.8-11.18 5.72 0-0.03 0-0.05-0.34 0.2-0.69 0.41-1.01 0.52-2.01 1.04-15.37 8.1-30.47 16.67-7.81 4.43-15.55 8.98-5.97 3.14-12.02 6.16c8.73-5.4 17.62-10.53 26.54-15.59q15.11-8.58 30.47-16.68 1.88-0.98 3.76-1.95 0.04-1.01 0.07-1.91 3.52-2.08 7.01-4.21-7.02 3.45-13.94 7.08-15.44 8.05-30.61 16.59-7.92 4.44-15.76 9.02-5.93 3.08-11.93 6.04c8.81-5.39 17.77-10.52 26.77-15.58q7.83-4.4 15.73-8.67c5.04-2.71 10.04-5.55 15.2-8.02q3.79-1.81 7.59-3.58 0.07-1.69 0.15-2.75 1.32-0.78 2.64-1.57-1.31 0.64-2.61 1.29 0-0.02 0-0.05-0.58 0.31-1.16 0.62-5.05 2.51-10.07 5.1-15.58 8.05-30.9 16.59-7.97 4.43-15.87 9-5.94 3.06-11.94 5.99c8.9-5.4 17.95-10.54 27.05-15.59q7.68-4.27 15.43-8.43c5.11-2.74 10.19-5.61 15.45-8.06q5.99-2.79 12.04-5.48 0.02-0.24 0.05-0.42c0.39-2.65 2.84-3.54 4.9-3.82 8.27 3.01 42.92 14.87 48.63 16.45 2.24 0.63 10.2 2.65 18.89 2.65 3.32 0 6.37-0.3 9.05-0.9 6.6-1.46 13.2-3.62 16.55-4.77q0.08-0.02 0.17-0.04c0.14 0.9-0.76 1.46-0.76 1.46l-33.33 23.66c0.7-0.5 10.46-7.33 12.8-4.48 1.28 1.55-4.55 7.33-10.35 12.44-5.63 4-11.14 7.91-15.93 11.31zm-78.7 36.74c0.76 1.65 0.76 4.1 0 5.75-0.77-1.65-0.76-4.1 0-5.75zm10.8-2.75c-1 2.32-4.09 2.85-6.35 2.79-2.07-0.06-5.68-0.69-6.03-3.23 0.72 2.33 4.19 2.68 6.24 2.71 1.26 0.02 2.56-0.11 3.76-0.53q0.83-0.27 1.52-0.8c0.06-0.04 0.63-0.62 0.86-0.94q0.05-0.09 0.09-0.2 0.04 0.04-0.09 0.2zm-3.21-1.4c0 0.32-1.03 1.11-2.95 1.11-1.91 0-2.95-0.79-2.95-1.11v-17.13c1.04 0.87 2.2 2.13 3.28 3.67l1.43 12.8 0.39-9.72q0.44 0.89 0.8 1.83zm-157.8-107.66c0.66 0.54 0.49 1.87-0.4 2.96-0.88 1.09-2.14 1.53-2.8 0.99-0.67-0.54-0.5-1.86 0.39-2.95 0.88-1.09 2.14-1.54 2.81-1zm3.58 5.81q-0.02 0.01-0.06 0.01c-0.36 0-0.99-0.51-1.19-1.35-0.1-0.44-0.06-0.89 0.1-1.24 0.11-0.25 0.27-0.42 0.43-0.46l42.75-10.13q0 0.01 0 0.02 0 0.53 0.07 1.03l-42.12 11.3 42.48-9.82q0.1 0.27 0.21 0.53zm-41.89-52.81l-0.6-0.32c-10.54-5.51-15.83-8.28-23.63-34.07-7.91-26.18-7.27-44.71-6.99-52.62l0.01-0.31q0.06-1.66 0.73-2.97 0.71-0.08 1.49-0.17c-1.24 2.65-1.37 5.45-1.28 8.34 0.2 6.02 1.67 22.73 1.67 22.73 0 0 0.61-12.14 6.01-15.34 3.82-2.26 5.01 5.77 5.06 4.71 0.34-6.15 1.96-11.54 5.02-15.96-2.54 4.77-3.41 10.48-3.44 15.78-0.05 6.75 1.33 13.41 3.57 19.74-0.87-3.67-1.55-7.37-1.89-11.14-0.69-7.64-0.15-15.93 3.49-22.82 1.48-2.79 3.56-5.24 6.15-7.03-2.62 2.56-4.46 5.78-5.59 9.31-1.3 4.08-1.6 8.34-1.64 12.59 0.19-2.54 0.45-5.04 1-7.53 1.09-4.9 3.18-9.77 7.06-13.12q0.5-0.43 1.04-0.82c-2.3 2.38-3.92 5.33-4.98 8.5-1.35 4.02-1.61 8.3-1.64 12.51 0.18-2.5 0.43-4.98 0.98-7.43 0.72-3.2 1.87-6.3 3.66-8.99q-0.54 1-0.9 2.08c-3.79 11.41-1.8 36.82 8.58 47.21 9.79 9.79 26.62 16.82 46.18 19.3 8.7 1.11 17.23 1.67 25.35 1.67 5.46 0 10.7-0.26 15.58-0.75q1.63-0.17 2.99-0.17c5.95 0 7.84 2.38 9.11 6.48 0.85 2.78 0.5 5.15-0.87 7.25 0.34-2.08 0.33-4.19-0.27-6.29 0.41 2.93-0.29 5.74-1.48 8.37q-0.05 0.04-0.09 0.07c0.65-2.58 0.82-5.24 0.06-7.88 0.43 3.06-0.34 5.97-1.62 8.69 0.69-2.66 0.9-5.4 0.12-8.12 0.38 2.77-0.21 5.41-1.27 7.91 0.44-2.26 0.4-4.6-0.45-6.76-1.44-3.66-4.97-5.8-8.83-5.95-2.09-0.08-4.21 0.19-6.3 0.29q-3.18 0.16-6.36 0.26c-4.34 0.13-8.68 0.18-13.02 0.07-4.42-0.11-8.85-0.39-13.23-1.04q-6.46-0.97-12.84-2.41c-8.16-1.83-16.24-4.3-23.77-7.96-3.62-1.76-7.11-3.83-10.28-6.31-2.63-2.06-4.92-4.41-7-7.02q0.47 0.76 0.97 1.49c4.58 6.62 11.59 11.23 18.78 14.57 7.88 3.67 16.38 6.06 24.88 7.78 4.38 0.88 8.8 1.65 13.26 2.08 4.46 0.42 8.96 0.55 13.45 0.54q6.71-0.03 13.42-0.37 3.24-0.17 6.48-0.37c1.38-0.08 2.72-0.03 4.05 0.4 1.87 0.58 3.48 1.84 4.43 3.56 1 1.79 1.22 3.9 0.97 5.91-0.18 1.45-0.6 2.84-1.14 4.19-3.45 1.8-7.85 3.46-12.99 5.14-9.77 3.19-20.04 4.81-30.53 4.81-25.26 0-45.18-9.41-50.68-12.29zm32.88-132.21c-2.23-7.57-4.55-15.15-7.31-22.54q-1.95-5.25-4.02-10.45c-1.21-3-2.52-5.96-3.81-8.93q-0.11-0.27-0.23-0.54c1.19 2.19 2.45 4.36 3.55 6.61q2.41 4.9 4.56 9.91c3.09 7.21 5.77 14.57 8.14 22.04q1.94 6.18 3.62 12.44-0.98 0.04-2.06 0.13-1.17-4.35-2.44-8.67zm29.93-3.67c-2.01-7.26-4.41-14.43-6.97-21.51-2.28-6.29-4.91-12.44-7.62-18.55q-0.11-0.25-0.22-0.5c1.19 2.14 2.46 4.25 3.54 6.45 1.6 3.25 3.15 6.51 4.6 9.83 3.01 6.87 5.48 13.94 7.79 21.07 1.59 4.93 2.96 9.94 4.2 14.98q-1.04 0.11-2.12 0.22-1.54-6.01-3.2-11.99zm43.64 4.67q1.52-0.35 3.22-0.72 1.43-0.3 2.97-0.59 1.54-0.3 3.18-0.57 3.29-0.56 6.89-1.08c4.78-0.68 9.89-1.41 15-2.04q3.85-0.47 7.63-0.94 3.79-0.44 7.4-0.85 3.61-0.41 6.93-0.75 3.31-0.36 6.21-0.63c7.69-0.74 12.82-1.23 12.82-1.23 0 0-1.26 0.24-3.49 0.63-2.22 0.36-5.4 0.87-9.22 1.49q-2.87 0.46-6.17 0.95-3.29 0.49-6.88 1.03c-4.78 0.7-9.88 1.44-14.97 2.19-5.09 0.75-10.19 1.49-14.96 2.19q-3.59 0.54-6.88 1.03c-2.18 0.34-4.25 0.59-6.16 0.88q-1.65 0.22-3.13 0.42-0.18-0.67-0.39-1.41zm106.64-8.45q0.42-0.04 0.7-0.05 0.19 0.01 0.2 0.01c0.04 0.05 0.21 0.34 0.32 1.5 0.19 2.01 0.39 4.26 0.54 5.83l0.17 1.82c0.12 1.23 0.1 1.24-0.57 1.31-0.81 0.09-2.68 0.31-4.62 0.54-2.53 0.3-5.14 0.61-5.81 0.68-1.07 0.1-14.88 1.17-17.39 1.37-0.54-0.09-1.48-0.39-1.89-1.53-0.86-2.4-1.06-7.7-0.52-8.83 0.17-0.23 1.23-1.01 7.69-1.5l2-0.15c5.66-0.27 17.34-0.85 18.72-0.96q0.24-0.02 0.46-0.04zm-92.45 58.08q-1.2 0.27-2.61 0.59c-2.81-8.46-1.04-20.73 4.49-27.62 4.56-5.68 10.6-8.3 15-9.51-3.93 1.87-8.16 4.54-11.13 8.2-5.78 7.12-8.66 19.31-5.75 28.34zm24.06 5.91c11.29 0.54 22.61 1.14 33.83 2.47 2.8 0.33 5.6 0.7 8.37 1.25 2.12 0.42 4.57 0.81 6.36 2.09-1.71-1.1-3.96-1.41-5.93-1.74-2.59-0.43-5.19-0.73-7.8-0.99-5.67-0.57-11.36-0.96-17.05-1.32q-17.46-1.1-34.93-1.99-5.52-0.28-11.04-0.56c9.4 0.04 18.8 0.33 28.19 0.79zm48.78 30.53c-0.37-3.02-0.35-6.05-0.99-9.03-0.33-1.52-0.92-2.98-1.73-4.31-0.7-1.14-1.59-2.09-2.37-3.16 6.68 2.11 6.39 11 5.09 16.5zm-14.7 126.5c-12.83 6.77-25.33 11.98-34.69 16.02 7.97-4.19 18.32-9.57 29.41-15.24q5.06-2.59 9.59-4.94c10-5.19 18.22-9.44 24.69-11.82-5.54 3.01-14.13 8.14-29 15.98zm-117.45-67.56l5.84 1.82c11.97 4.3 24.14 8.03 36.21 12.04l6.17 27.39-1.33-6.94c-0.06-2.18 0.73-4.81 1.54-5.81 0.98-1.23 2.31-2.82 3.72-4.44 1.17-1.36 2.19 0.81 3.69 3.65-0.49-1.91-2.9-14.87-2.9-14.87 0.37 4.66 0.03 7.29-1.04 8.2-1.07 0.91-3.28 2.84-4.72 3.9-0.34 0.25-0.73 0.1-1.13-0.23-0.24-2.03 4.28-6.85 4.28-6.85-4.28 2.78-5.69 2.69-6.15 2.39l-1.31-6.83-0.05-0.25-0.25-0.08c-6.36-2.15-12.74-4.22-19.09-6.34q-1.7-0.57-3.39-1.14c0.28-0.68 1.03-1.74 3.06-2.05 3.06-0.48 8.61 0.59 8.61 0.59l-10.8-5.26 5.69 1.8-2.3-6.31q0.72-0.26 1.43-0.52l1.59 5.45c0 0 0.72-1.26 1.9-1.52 1.17-0.26 3.39 4.4 3.39 4.4l-2.96-9.85q0.72-0.3 1.43-0.61l3.18 11.29 0.3 0.08c0 0 8.39 2.02 12.21 2.94q0.76 0.18 1.49 0.32c2.52 0.51 4.34 0.88 4.87 3.36 0.05 0.23 6.74 36.69 11.79 74.96 0.61 4.62 1.54 6.89 3.34 8.07 0.7 0.46 2.67 1.16 5.93 2.33q2 0.71 4.6 1.65c5.6 2.04 6.35 5.49 6.35 8.6 0 1.92-0.68 3.28-1.43 4.2q-0.61 0.06-1.27 0.06c-1.54 0-3.12-0.25-4.59-0.72-2.86-0.93-5.82-1.89-11.89-4.25-5.61-2.19-7.34-10.7-8.27-15.27-1.83-9.02-16.62-73.34-16.77-73.99l-0.13-0.57-43.62-14.52q1.4-0.12 2.78-0.27zm66 84.54c-4.56-34.57-10.46-67.68-11.61-73.97l3.29 13.61-1.85-13.47 2.91 13.15-1.6-13.52 2.65 13.2-1.37-13.9c1 7.01 5.34 35.41 8.3 54.77 1.47 9.56 2.62 17.11 2.8 18.35 0.71 4.89 1.68 7.17 3.57 8.42 0.72 0.47 2.38 1.07 6.05 2.38q2 0.71 4.59 1.66c5.28 1.92 6.01 5.03 6.01 8.1 0 0.99-0.2 1.85-0.53 2.58q0.02-0.11 0.04-0.23c0.09-0.6 0.09-1.21 0.07-1.76q-0.03-0.42-0.09-0.8-0.06-0.38-0.13-0.71c-0.09-0.43-0.22-0.78-0.3-1.02q-0.14-0.36-0.15-0.37 0 0.01 0.06 0.4 0.05 0.38 0.09 1.04 0.02 0.32 0.01 0.69-0.01 0.36-0.03 0.76-0.03 0.4-0.1 0.81-0.07 0.41-0.16 0.81-0.07 0.23-0.13 0.44 0.06-0.45 0.06-0.89 0-0.45-0.03-0.88-0.04-0.42-0.11-0.81-0.07-0.38-0.16-0.71-0.08-0.33-0.18-0.58-0.08-0.26-0.16-0.44-0.16-0.37-0.16-0.38 0 0.01 0.07 0.4 0.08 0.39 0.13 1.05 0.04 0.33 0.04 0.71 0.01 0.37-0.01 0.77-0.02 0.41-0.08 0.82-0.06 0.42-0.15 0.83-0.08 0.29-0.17 0.58 0.01-0.03 0.01-0.06 0.06-0.46 0.06-0.91 0.01-0.45-0.02-0.88c-0.04-0.28-0.05-0.56-0.11-0.81q-0.07-0.38-0.16-0.71-0.08-0.33-0.18-0.59-0.09-0.26-0.16-0.44-0.16-0.36-0.16-0.37 0 0.01 0.07 0.4 0.07 0.39 0.13 1.05 0.03 0.33 0.04 0.7 0 0.38-0.01 0.78-0.02 0.4-0.08 0.82-0.07 0.42-0.16 0.83-0.1 0.41-0.23 0.8-0.14 0.39-0.31 0.74c-0.12 0.23-0.22 0.46-0.35 0.65q-0.18 0.31-0.38 0.55-0.11 0.15-0.23 0.28-0.03 0.01-0.06 0.01c0.59-0.99 1.04-2.29 1.04-3.94 0-3.26-0.8-7.3-7.03-9.58q-2.6-0.94-4.61-1.66c-2.97-1.05-5.11-1.82-5.71-2.21-1.26-0.83-2.23-2.4-2.88-7.34zm-160.91-191.52c-2 0.19-3.14 0.29-3.14 0.29 0 0 1.13-0.18 3.12-0.49 1.98-0.28 4.82-0.73 8.23-1.21 3.41-0.48 7.39-1.03 11.66-1.59q3.21-0.41 6.58-0.85 3.37-0.42 6.8-0.85 3.42-0.42 6.8-0.82 3.37-0.39 6.59-0.77c4.28-0.48 8.27-0.92 11.7-1.27 3.42-0.36 6.28-0.62 8.28-0.82 2-0.18 3.15-0.28 3.15-0.28 0 0-1.14 0.17-3.12 0.48-1.99 0.29-4.83 0.74-8.24 1.21-3.41 0.49-7.39 1.03-11.66 1.6q-3.21 0.41-6.58 0.85-3.37 0.42-6.8 0.85-3.42 0.41-6.8 0.82-3.37 0.39-6.59 0.76c-4.28 0.49-8.27 0.92-11.7 1.28-3.42 0.36-6.28 0.61-8.28 0.81zm71.05-27.1c-4.43 1.39-2.08 12.56-0.72 15.99-2.89-3.46-5.11-10.18-8.51-11.47-3.64-1.39-38.95 3.42-46.77 4.2 16.5-3.75 53.94-8.47 56-8.72zm41.69-2.92q0.34-0.05 0.65-0.1c0.5-0.07 0.94-0.13 1.26-0.13 0.42 0 0.81 0 1.18 2.31 0.44 2.8 0.93 5.94 1.27 8.06l0.35 2.22c0.12 0.71 0.25 1.45 0.02 1.77-0.15 0.21-0.55 0.38-1.13 0.47-1.17 0.19-3.86 0.64-6.67 1.12-3.66 0.61-7.45 1.25-8.42 1.4-1.71 0.25-25.58 3.34-25.8 3.37q-0.03 0.01-0.16 0.01c-0.75 0-2.57-0.21-3.39-2.15-1.41-3.32-2.08-10.53-1.38-12.22 0.15-0.35 1.34-1.59 10.58-2.82l0.11-0.01c1.29-0.13 28.94-2.96 31.53-3.3zm44.18 52.82c10.86 0.62 21.73 1.33 32.51 2.77 2.83 0.37 5.65 0.79 8.45 1.37 2.39 0.49 4.81 1.05 6.97 2.24-2.04-0.99-4.28-1.46-6.5-1.85q-3.65-0.63-7.34-1.05c-5.19-0.62-10.4-1.06-15.62-1.47-10.77-0.84-21.55-1.5-32.33-2.15q-6.72-0.4-13.45-0.75c9.11 0.05 18.22 0.38 27.31 0.89zm-7.15 1.76c10.83 0.65 21.69 1.41 32.44 2.91 2.78 0.39 5.55 0.82 8.3 1.4 2.41 0.51 4.82 1.11 7.01 2.26-1.99-0.92-4.13-1.4-6.28-1.81-2.36-0.45-4.76-0.79-7.15-1.09-5.22-0.66-10.47-1.14-15.71-1.58-10.7-0.89-21.43-1.57-32.15-2.24q-6.72-0.42-13.44-0.77c9 0.06 18 0.39 26.98 0.92zm109.56 41.85c2.34-1.17 4.84-2.09 6.22-4.45 1.37-2.34 1.68-5.21 1.84-7.87 0.29-4.61 0.11-9.24 0.25-13.85q0.01-0.41 0.03-0.81c0.02 3.57 0.26 7.13 0.38 10.69 0.09 2.77 0.14 5.58-0.33 8.32-0.44 2.62-1.47 5.22-3.69 6.83-1.11 0.79-2.39 1.38-3.58 2.04q-1.86 1.03-3.75 2.02-3.91 2.03-7.87 3.98-4.86 2.36-9.76 4.63 0 0.01-0.01 0.03-0.01-0.01-0.03-0.02-2.97 1.39-5.96 2.72-4.47 1.99-8.99 3.87-0.01 0.03-0.02 0.05-0.02-0.01-0.04-0.03-3.68 1.54-7.39 3.03-0.04 0.07-0.08 0.14-0.04-0.04-0.09-0.07-3.61 1.45-7.24 2.87-0.08 0.13-0.16 0.27-0.08-0.07-0.16-0.15-3.57 1.41-7.14 2.8-0.09 0.14-0.2 0.28-0.07-0.07-0.14-0.14-0.66 0.26-1.33 0.51-2.93 1.15-5.86 2.28-0.08 0.1-0.16 0.2-0.04-0.05-0.09-0.1-5.21 2.02-10.45 3.95c-5.45 2-10.9 4.09-16.44 5.83-5.5 1.73-11.24 2.07-16.93 1.31-4.28-0.56-8.45-1.7-12.55-3.02l-0.19-0.64c7.79 1.54 15.67 2.92 23.61 1.6 2.84-0.47 5.53-1.36 8.22-2.34q4.02-1.46 8.03-2.92 4.23-1.53 8.45-3.08 0.21-0.17 0.32-0.29c0.47-0.56 0.79-1.21 1.05-1.89 0.61-1.57 0.84-3.29 1.01-4.95q0.23-2.45 0.33-4.9 0.1-1.86 0.2-3.72c0.19 2.95 0.44 5.9 0.48 8.86 0.03 1.75-0.03 3.55-0.47 5.25q-0.09 0.32-0.21 0.63 2.45-0.9 4.89-1.8c1.55-1.91 1.82-4.69 2.05-7.05 0.24-2.48 0.34-4.97 0.48-7.45 0.19 2.72 0.43 5.45 0.48 8.18 0.03 1.67-0.02 3.39-0.42 5.02q-0.05 0.18-0.11 0.36 2.46-0.93 4.91-1.87c1.37-1.8 1.64-4.31 1.87-6.5 0.24-2.31 0.35-4.63 0.5-6.95 0.18 2.57 0.42 5.14 0.46 7.72 0.03 1.54-0.02 3.11-0.37 4.62q-0.03 0.09-0.06 0.18 2.51-0.97 5-1.96c1.17-1.68 1.45-3.92 1.68-5.91 0.24-2.15 0.36-4.31 0.51-6.47 0.18 2.34 0.4 4.68 0.46 7.03 0.03 1.51-0.03 3.02-0.37 4.45q2.54-1.02 5.08-2.06c0.99-1.54 1.29-3.48 1.51-5.27 0.26-2.03 0.39-4.07 0.55-6.11 0.18 2.22 0.4 4.44 0.44 6.67 0.03 1.29-0.03 2.57-0.28 3.81q2.58-1.07 5.15-2.15c0.87-1.49 1.16-3.3 1.39-5 0.23-1.78 0.37-3.56 0.52-5.34 0.17 1.96 0.37 3.92 0.43 5.89 0.04 1.2 0 2.4-0.2 3.55q1.06-0.44 2.12-0.88 1.5-0.64 3.01-1.28c0.77-1.38 1.08-2.98 1.31-4.54 0.25-1.65 0.39-3.31 0.56-4.97 0.26 2.77 0.74 5.78 0.29 8.59q2.61-1.11 5.23-2.24c1.23-2.58 1.39-5.66 1.7-8.45 0.26 2.47 0.62 5.06 0.35 7.56q2.61-1.14 5.22-2.3c1.01-2.42 1.32-5.1 1.65-7.69 0.26 2.25 0.53 4.52 0.38 6.78q6.32-2.83 12.52-5.92zm-144.67-69.14q1.25 9.72 1.74 19.51 0.01 0.27 0.02 0.53c-0.82-5.79-1.65-11.59-2.68-17.35q-1.12-6.23-2.36-12.44 0.92-0.15 1.76-0.29 0.86 5 1.52 10.04zm-7.24 1.6q1.28 9.75 1.78 19.56 0.01 0.27 0.02 0.54c-0.82-5.83-1.65-11.66-2.71-17.46q-1.17-6.39-2.46-12.76 0.81-0.13 1.77-0.3 0.92 5.2 1.6 10.42zm-21.96 3.02q1.61 10.69 2.13 21.48 0.01 0.29 0.03 0.58-1.3-9.58-3.06-19.1-1.23-6.57-2.64-13.12 0.85-0.11 1.77-0.23 0.98 5.18 1.77 10.39zm-7.35 0.93c1.13 7.03 1.9 14.14 2.23 21.26q0.04 0.77 0.08 1.53-1.24-9.24-2.95-18.42-1.29-6.84-2.78-13.63c0.74-0.37 1.19-0.75 1.46-1.08q0.06-0.01 0.13-0.01 0.99 5.16 1.83 10.35zm-26.46 1.68q0.17 2.64 0.29 5.28c0.07 1.73 0.03 3.46 0 5.19-0.06 3.14-0.33 6.25-0.73 9.37q-0.08 0.68-0.18 1.37c-0.32-2.67-0.43-5.37-0.8-8.03-0.46-3.36-0.8-6.73-1.29-10.08q-0.73-5.02-1.59-10.02 1.79-0.23 3.51-0.44 0.54 3.67 0.79 7.36zm-10.31 9.35c0.73 3.33 1.02 6.8 0.87 10.21-0.07 1.57-0.3 3.11-0.56 4.67-0.43-1.2-0.55-2.58-0.75-3.83q-0.38-2.38-0.7-4.76c-0.45-3.3-0.88-6.59-1.24-9.9-0.16-1.45-0.34-2.93-0.36-4.39 1.33 2.5 2.14 5.25 2.74 8zm2.53-15.84q0.87 4.69 1.55 9.41c1 6.93 1.62 13.88 2.13 20.86q0.02 0.28 0.04 0.55c-0.82-6.14-1.63-12.29-2.59-18.41q-0.98-6.16-2.19-12.28 0.53-0.07 1.06-0.13zm25.27-3.2q0.91 4.74 1.7 9.51c1.17 7.05 1.97 14.2 2.3 21.34q0.04 0.81 0.07 1.61-1.24-9.3-2.98-18.53-1.31-6.87-2.82-13.7 0.96-0.12 1.73-0.23zm23.76 6.9c0.92 6.66 1.57 13.32 1.89 20.04q0.02 0.27 0.03 0.54c-0.83-5.98-1.72-11.95-2.82-17.88q-1.27-6.84-2.72-13.63 0.93-0.12 1.84-0.24 1.01 5.57 1.78 11.17zm-49.21 52.65q-0.14 1.43-0.23 2.86c0.19-5.04 0.61-10.5 3.38-14.87 1.43-2.24 3.53-3.92 6.04-4.78 2.77-0.95 5.77-1.01 8.65-0.78 6.13 0.49 12.24 1.38 18.34 2.17 6.11 0.79 12.23 1.62 18.34 2.44q9.41 1.25 18.82 2.52c6.32 0.86 12.63 1.78 18.96 2.54 5.58 0.68 12.25 0.56 16.57 4.74 4.46 4.32 4.5 11.09 4.49 16.85q-0.01 15.11-0.13 30.22 0 0.43-0.01 0.87-0.27-13.29-0.44-26.58c-0.04-2.94 0.02-5.91-0.16-8.85-0.17-2.85-0.63-5.79-1.87-8.38-1.2-2.52-3.17-4.51-5.73-5.64-2.71-1.2-5.7-1.55-8.62-1.84-6.21-0.63-12.39-1.48-18.57-2.3q-9.39-1.25-18.78-2.55c-12.11-1.68-24.23-3.41-36.36-4.98-5.46-0.7-11.94-1.83-16.67 1.79-4.36 3.33-5.51 9.41-6.02 14.55zm55.6-51.2q-1.23-6.69-2.61-13.35 0.99-0.13 1.82-0.24 0.95 5.36 1.66 10.72c0.88 6.58 1.51 13.16 1.83 19.78q0.02 0.28 0.03 0.56c-0.81-5.84-1.66-11.68-2.73-17.47zm-11.34 41.39c-17.36-2.52-29.61-5.94-29.61-5.94 21.97 2.46 67.09 9.14 78.9 10.58 11.82 1.44 15.21 2.69 16.94 12.04 1.23 6.68 0.71 13.97 0.86 17.08-1.3-4.57-3.78-14.65-10.32-20.2-7.9-6.71-30.95-9.82-56.77-13.56zm74.21-10.59c-5.13-0.75-10.29-1.32-15.45-1.83-10.43-1.03-20.89-1.84-31.36-2.52q-6.51-0.42-13.03-0.78c8.83-0.04 17.69 0.44 26.5 1.04 10.67 0.73 21.36 1.64 31.92 3.36 4.97 0.81 10.19 1.61 14.79 3.75-4.23-1.71-8.88-2.36-13.37-3.02zm12.07 14.25c0.91 0 1.65 0.65 1.65 1.46 0 0.8-0.74 1.46-1.65 1.46-0.91 0-1.65-0.66-1.65-1.46 0-0.81 0.74-1.46 1.65-1.46zm-3.9-16.04c-5.18-0.75-10.39-1.29-15.61-1.79-10.72-1.03-21.48-1.79-32.23-2.49q-6.67-0.43-13.35-0.79c8.91-0.04 17.85 0.43 26.73 1.01 10.71 0.7 21.44 1.56 32.05 3.2 2.77 0.42 5.54 0.9 8.27 1.53 2.29 0.53 4.55 1.16 6.67 2.19-3.94-1.67-8.32-2.25-12.53-2.86zm6.69-2c-5.1-0.69-10.24-1.19-15.36-1.65-10.74-0.96-21.5-1.69-32.26-2.37q-6.71-0.42-13.44-0.78c8.95 0.06 17.89 0.41 26.81 0.96 10.8 0.67 21.61 1.49 32.31 3.06 2.79 0.41 5.56 0.87 8.31 1.47 2.34 0.52 4.66 1.14 6.8 2.22-1.9-0.84-3.9-1.33-5.93-1.74-2.4-0.49-4.82-0.84-7.24-1.17zm-56.22-32.7q-1.05-5.8-2.21-11.58 0.33-0.25 0.57-0.57c0.74-1.02 0.53-2.25 0.35-3.33l-0.35-2.2c-0.18-1.14-0.41-2.58-0.65-4.1q2.01 9.54 3.28 19.2c0.89 6.7 1.47 13.42 1.81 20.17q0.01 0.3 0.03 0.59c-0.88-6.07-1.73-12.14-2.83-18.18zm45.66 112.44c-2.03 0.79-4.08 1.56-6 2.57-0.8 0.43-1.83 0.93-2.29 1.75-0.48 0.85-0.26 2.04-0.2 2.97 0.27 4.4 0.81 8.78 1.09 13.18q0.4 6.12 0.35 12.25-1.19-10.27-2.45-20.53-0.22-1.71-0.4-3.43c-0.11-1.1-0.27-2.25-0.22-3.36 0.11-2.31 1.94-3.41 3.86-4.25 4.21-1.83 8.65-3.2 13.01-4.61q5.69-1.82 11.42-3.47c-6.06 2.31-12.13 4.58-18.17 6.93zm-3.65 117.36c-2.39 1.35-4.77 2.68-6.77 4.8-1.84 1.95-3.32 4.23-5.07 6.28q-0.59 0.69-1.22 1.35 2.71-0.21 5.41-0.5c7.09-0.78 14.15-2 21.07-3.75-1.5-0.1-2.57-0.56-2.78-1.35-0.37-1.4 2.15-3.28 5.63-4.2 3.48-0.92 6.59-0.53 6.96 0.87 0.19 0.69-0.33 1.49-1.3 2.23 5.42-1.76 10.73-3.91 15.78-6.56q1.95-1.03 3.87-2.17 0.66 0.22 1.32 0.44c-16.33 10.1-41.84 16.61-70.45 16.61-49.19 0-89.21-19.23-89.21-42.85 0-11.11 8.91-21.67 25.09-29.73 12.36-6.16 27.89-10.32 44.85-12.12v1.9q-3.84 0.42-7.65 1c-6.31 0.99-12.57 2.37-18.66 4.33-6.15 1.99-12.22 4.5-17.68 8-4.86 3.12-9.38 7.08-12.05 12.29-1.64 3.2-2.48 7.02-1.88 10.6 0.35 2.04 0.91 3.95 1.84 5.81 1.22 2.43 2.85 4.62 4.74 6.58 4.39 4.55 9.95 7.93 15.66 10.58 11.66 5.43 24.45 8.29 37.19 9.7 13.17 1.46 26.54 1.29 39.67-0.52 10.48-1.44 21-3.9 30.74-8.14q0.81 0.28 1.65 0.56c-5.34 2.43-10.92 4.32-16.6 5.78q-5.03 1.29-10.15 2.18zm6.43 8.82c-0.97 0.19-1.87-0.16-2-0.79-0.12-0.63 0.56-1.3 1.54-1.5 0.97-0.2 1.87 0.15 2 0.78 0.12 0.64-0.56 1.31-1.54 1.51zm-53.23-54.97c0.08 0.39 2.2 9.42 19.77 9.42 6 0 10.1-1.33 12.85-2.89q0.12 0.54 0.23 1.05c-2.89 1.57-7.09 2.88-13.08 2.88-7.11 0-11.81-1.46-14.91-3.29 0.71 0.76 1.27 1.67 1.5 3.01 1.69 10.11-17.2 15.2-24.62 23.68-2.68 3.08 8.82 7.24 13.95 8 5.15 0.76 10.26 1.24 15.28 1.48 1.25 0.07 2.48 0.09 3.71 0.13 1.23 0.04 2.51 0.03 3.75 0.05q0.6 0 1.2 0c-1.04-0.53-1.26-1.24-1.26-2.03 0-1.61 3.45-2.91 7.7-2.91 4.26 0 7.71 1.3 7.71 2.91 0 0.53-0.11 1.03-0.49 1.46 6.74-0.56 13.14-1.53 19.06-2.84q5.13-1.14 9.76-2.59c1.04-0.05 2.01-0.2 2.83-0.46 0.72-0.21 1.47-0.56 2.18-1.04q0.73 0.25 1.5 0.51c-10.38 4.08-21.48 6.3-32.55 7.42-12.71 1.29-25.65 1.14-38.31-0.54-12.11-1.61-24.43-4.54-35.32-10.22-5.29-2.75-10.5-6.18-14.22-10.92-1.43-1.82-2.62-3.84-3.38-6.02q-0.43-1.25-0.64-2.55c-0.14-0.83-0.14-1.65-0.24-2.47-0.06-0.54 0.04-1.48 0.13-2.06 0.31-1.96 0.86-3.78 1.76-5.55 1.21-2.4 2.9-4.54 4.8-6.45 4.27-4.3 9.64-7.57 15.11-10.13 10.75-5.03 22.46-7.96 34.22-9.46v22.21zm2.52 38.24c-1.11-1.25-1.9-2.71-1.9-4.42 0.01-2.05 0.92-3.94 2.07-5.59 2.35-3.39 5.66-6.02 7.87-9.52 1.11-1.77 1.63-3.63 1.52-5.72 0.43 1.61 0.44 3.16-0.09 4.75-0.64 1.9-1.77 3.61-3 5.18-1.24 1.59-2.6 3.09-3.86 4.66-1.25 1.56-2.53 3.24-3.15 5.17-0.61 1.93-0.18 3.67 0.54 5.49zm10.45 1.73c0.94 0 1.69 0.51 1.69 1.14 0 0.64-0.75 1.15-1.69 1.15-0.93 0-1.69-0.51-1.69-1.15 0-0.63 0.76-1.14 1.69-1.14zm113.65-67.79c-4.58 2.62-24.6 12.67-28.73 14.78 2.38-1.69 6.56-7.17 8.7-9.16 2.15-2.01 5.57-2.39 7.64-4.37 2.62-2.51 2.68-7.6 5-10.63 2.62-3.41 5.39-6.02 6.65-10.16 1.18-3.89 3.91-11.87 4.35-15.85-0.09 2.62 1.21 22.15 1.66 29.13 0.24 3.85-2.19 4.5-5.27 6.26zm2.07-38.96c-0.64 0.03-1.23-1.33-1.3-3.04-0.08-1.71 0.38-3.12 1.03-3.15 0.64-0.02 1.23 1.34 1.3 3.04 0.08 1.71-0.38 3.12-1.03 3.15zm-135.57-73.46c8.63 1.08 17.28 2.09 25.87 3.43 4.09 0.63 8.15 1.41 12.14 2.49-7.72-1.5-15.52-2.5-23.32-3.55-8.47-1.15-16.94-2.24-25.4-3.48q-3.98-0.58-7.96-1.17 9.34 1.12 18.67 2.28zm76.3 0.96c5.05 2.19 5.76 8.17 5.25 12.97q-0.18 1.79-0.59 3.53c-0.35-2.9-0.34-5.83-0.92-8.71-0.3-1.54-0.88-3.01-1.62-4.39-0.64-1.18-1.46-2.24-2.12-3.4zm12.93 14.09c-0.36-2.92-0.35-5.86-0.93-8.74-0.31-1.54-0.88-3.03-1.64-4.4-0.66-1.17-1.49-2.22-2.18-3.36 6.31 2.59 6.07 10.99 4.75 16.5zm7.75-2.11c-0.35-2.92-0.35-5.87-0.93-8.77-0.31-1.54-0.89-3.02-1.66-4.39-0.67-1.18-1.52-2.2-2.24-3.34 6.4 2.48 6.15 11.01 4.83 16.5zm4.82-15.33c-0.7-1.2-1.58-2.23-2.34-3.38 6.5 2.36 6.23 10.99 4.92 16.5-0.36-2.92-0.35-5.87-0.93-8.76-0.31-1.53-0.87-3.02-1.65-4.36zm7.07-2.28c-0.64-1.1-1.51-2.01-2.23-3.05 6.59 2.24 6.31 11 5 16.5-0.37-3.02-0.32-6.09-0.99-9.08-0.35-1.55-0.99-2.99-1.78-4.37zm-0.25-82.61c-3.32 0.84-2.07 9.18-1.21 11.76-1.18-2.17-3.9-6.14-3.72-7.62 0.32-2.71 3.4-4.04 4.93-4.14zm-71.46 20.25c3.89-0.42 8.42-0.97 13.28-1.47 4.86-0.5 10.05-1.04 15.24-1.57 5.19-0.49 10.38-0.98 15.25-1.44 4.86-0.47 9.41-0.82 13.31-1.16 3.89-0.34 7.15-0.56 9.42-0.74 2.28-0.16 3.58-0.25 3.58-0.25 0 0-1.29 0.17-3.56 0.45-2.26 0.27-5.5 0.69-9.38 1.12-3.89 0.43-8.42 0.98-13.28 1.48-4.87 0.5-10.05 1.03-15.24 1.57-5.19 0.49-10.38 0.98-15.25 1.44-4.87 0.46-9.41 0.81-13.31 1.15q-1.66 0.15-3.16 0.27-0.05-0.24-0.11-0.48 1.52-0.18 3.21-0.37zm24.59 45.4c11.04 0.57 22.11 1.2 33.09 2.52 2.84 0.34 5.69 0.71 8.49 1.26 2.41 0.48 4.92 0.96 7.05 2.24-1.99-1.07-4.28-1.48-6.49-1.84q-4.09-0.64-8.22-1.05c-5.68-0.57-11.39-0.99-17.08-1.37q-16.94-1.12-33.9-2.01-5.28-0.28-10.56-0.56c9.21 0.05 18.42 0.34 27.62 0.81zm-7.16 1.77c10.96 0.58 21.94 1.25 32.83 2.62 2.88 0.37 5.77 0.77 8.61 1.34 2.41 0.49 4.87 1.01 7.02 2.24-2.03-1.04-4.31-1.49-6.54-1.85q-3.95-0.65-7.92-1.07c-5.6-0.6-11.21-1.04-16.83-1.44q-16.97-1.21-33.96-2.12-5.25-0.29-10.49-0.57c9.1 0.05 18.19 0.36 27.28 0.85zm-34.55-26.59c0.81 6.33 1.31 12.68 1.63 19.05q0.01 0.25 0.03 0.51c-0.86-5.87-1.68-11.74-2.71-17.57q-1.96-11.18-4.36-22.26-1.93-8.92-4.4-17.71-3.08-10.97-6.9-21.69c-2.28-6.41-5-12.65-7.78-18.85q-0.11-0.25-0.23-0.5c1.14 2.01 2.34 3.98 3.38 6.03q2.4 4.69 4.54 9.5c2.98 6.66 5.42 13.55 7.63 20.51 2.22 6.97 4 14.12 5.51 21.28q2.28 10.77 3.66 21.7zm-23.96-61.92c1.53 3.44 2.89 6.97 4.16 10.52 1.31 3.64 2.58 7.32 3.67 11.04q2.15 7.34 3.92 14.77c-0.47-0.71-1.18-1.18-2.31-1.18q-0.03 0-0.05 0-1.29-5.19-2.73-10.33c-2.05-7.34-4.38-14.57-6.92-21.75-2.32-6.54-5.07-12.89-7.89-19.22q-0.12-0.25-0.23-0.51c1.23 2.19 2.52 4.35 3.64 6.59q2.48 4.98 4.74 10.07zm-85.37 31.87c0.28 1.3 0.55 2.5 0.82 3.67 0.58 2.42 0.32 4.61-0.73 6.15-0.8 1.17-1.99 1.9-3.43 2.1q-0.47 0.07-0.89 0.07c-1.7 0-3.86-0.67-5.52-5.91-1.66-5.21-3.73-16-3.75-16.12-1.34-6.6 1.82-8.3 3.24-8.73q0.66-0.2 1.33-0.2c2.68 0 4.74 2.36 5.96 6.81 1.46 5.29 2.29 9.1 2.97 12.16zm-2.74 14.03c4.36-0.76 9.02-1.53 13.7-2.22q3.51-0.51 6.97-1.02 3.47-0.47 6.77-0.91c4.39-0.58 8.49-1.12 12.01-1.53 7.03-0.83 11.72-1.38 11.72-1.38 0 0-1.16 0.19-3.2 0.52-2.05 0.31-4.96 0.76-8.46 1.3-3.5 0.53-7.59 1.15-11.97 1.81-4.37 0.69-9.03 1.42-13.7 2.15-4.65 0.76-9.31 1.51-13.66 2.29q-3.27 0.61-6.27 1.16c-1.99 0.38-3.88 0.72-5.6 1.09-1.74 0.34-3.32 0.69-4.71 1.01-0.71 0.15-1.35 0.34-1.95 0.48q-0.9 0.25-1.65 0.45-0.73 0.24-1.3 0.43-0.55 0.22-0.94 0.38-0.73 0.4-0.74 0.41 0.01-0.01 0.69-0.5 0.37-0.2 0.91-0.48 0.55-0.26 1.27-0.56 0.73-0.27 1.62-0.6 0.89-0.3 1.93-0.61 2.08-0.63 4.68-1.26 2.6-0.63 5.59-1.23 3-0.61 6.29-1.18zm107.07 159.46c-2.53 0-4.59-2.26-4.59-5.04 0-2.77 2.06-5.03 4.59-5.03 2.54 0 4.6 2.26 4.6 5.03 0 2.78-2.06 5.04-4.6 5.04zm-4.7-10.08q-0.89 0.94-1.4 2.17v-4.95q0.57 1.42 1.4 2.78zm-0.14 9.93q0.1 0.11 0.2 0.21v43.75c0.56 0.74 0.96 1.53 1.56 1.94v-44.48q1.17 0.65 2.54 0.78l1.86 30.53 2.41-31.72q0.03-0.01 0.05-0.03 0.37 0.48 0.73 0.98 0 1.25 0 2.49 0 5.49 0 10.97 0 5.32 0 10.65 0 4.74 0 9.48 0 3.75 0 7.49-0.01 1.37 0 2.73c0.03 2.55-2.41 2.27-3.88 2.03 3.32 1.35 7.34 1.51 9.07 1.58v-37.86c1.16 3.24 1.93 6.94 2.03 11.31v26.59c5.59-0.02 9.43-1.24 12.01-2.66q0.12 0.52 0.23 1.03c-2.43 1.51-6.32 2.94-12.37 2.94-15.02 0-17.45-6.79-17.7-7.68v-42.74zm144.21-116.68c2 2.12 3.35 4.85 3.92 7.56 0.35 1.64 0.33 3.38 0.33 5.08-0.14-1.63-0.72-3.73-1.57-5.16-0.81-1.39-1.78-2.69-3.18-3.19-1.37-0.48-2.77-0.91-3.4-2.28-0.65-1.39 0.23-2.04-0.86-3.34-0.96-1.16-3.54-1.77-4.74-2.72 3.47 0.31 8.12 2.58 9.5 4.05zm-109.37 28.47c5.9 3.65 13.66-1.82 16.23 1.27 1.69 2.05-4.45 4.54-6.25 7.41-2.59 4.14-3.84 8.94-5.82 12.85 1.39-10.77-0.52-16.67-4.16-21.53zm93.48-7.68c-0.37-3.04-0.34-6.12-1.01-9.12q-0.53-2.36-1.84-4.39c-0.72-1.12-1.65-1.98-2.49-2.99 6.96 1.73 6.63 11.03 5.34 16.5zm-6.73 2.07c-0.36-3.04-0.33-6.1-1-9.1q-0.53-2.35-1.82-4.38c-0.7-1.12-1.62-2.01-2.44-3.02 6.87 1.85 6.55 11.01 5.26 16.5zm-6.91 2.06c-0.37-3.02-0.33-6.08-1-9.06q-0.52-2.35-1.79-4.39c-0.69-1.11-1.59-2.02-2.38-3.05 6.77 1.99 6.47 11.01 5.17 16.5zm-48.73-30.24c11.29 0.51 22.61 1.09 33.85 2.33 2.88 0.32 5.77 0.68 8.63 1.22q1.69 0.31 3.35 0.76c1.06 0.29 2.16 0.64 3.05 1.32-1.67-1.16-4-1.43-5.97-1.74-2.64-0.43-5.31-0.71-7.98-0.96-5.77-0.55-11.56-0.9-17.34-1.24-11.68-0.69-23.36-1.29-35.04-1.89q-5.47-0.27-10.93-0.55c9.47 0.04 18.92 0.32 28.38 0.75zm-65.33-101.36c1.85 3.02 3.39 6.22 4.8 9.46 3.03 6.97 5.48 14.17 7.73 21.42 2.34 7.55 4.47 15.17 6.49 22.81 1.96 7.43 3.73 14.92 5.14 22.48 1.24 6.64 2.25 13.31 2.96 20.02q0.02 0.27 0.05 0.54c-0.89-5.88-1.97-11.75-3.14-17.59-1.46-7.33-3.14-14.63-4.95-21.89q-2.83-11.31-6.23-22.46c-2.2-7.24-4.54-14.45-7.24-21.51-1.29-3.39-2.69-6.74-4.29-9.99-1.46-2.96-3.1-6.03-5.4-8.43q-0.63-0.66-1.36-1.22c2.3 1.63 3.98 3.99 5.44 6.36zm-11.37-7.61c2.17 0.38 4.67 1.77 5.66 3.81-1.73-1.35-3.87-2.26-6.01-2.69-1.97-0.4-3.96-0.72-5.93-1.16 2.03-0.49 4.25-0.31 6.28 0.04zm-7.99 4.6c-1.18-1.04-2.26-2.1-3.63-2.9-1.31-0.76-2.72-1.24-4.14-1.74 3.22-0.91 7.01 1.41 7.77 4.64zm-3.35 20.91c2.99 6.78 5.42 13.77 7.71 20.81 1.63 4.99 3.01 10.08 4.25 15.19q-0.97 0.11-2.14 0.23-1.54-6.14-3.23-12.25c-1.97-7.11-4.34-14.11-6.83-21.06-2.24-6.25-4.89-12.34-7.59-18.41q-0.1-0.24-0.21-0.48c1.16 2.08 2.41 4.14 3.47 6.27 1.58 3.21 3.13 6.42 4.57 9.7zm-5.38-21.45c-1.14-0.86-2.08-1.93-3.33-2.68-1.07-0.64-2.31-0.91-3.44-1.42 3.03-0.84 6.06 1.08 6.77 4.1zm-10.4-33.56c0.88 1.62 1.57 3.34 2.2 5.07q0.97 2.72 1.81 5.49c0.56 1.85 1.04 3.71 1.11 5.65 0.07 1.85-0.19 3.75-1.15 5.36 1.23-3.13 0.46-6.73-0.57-9.81-1.21-3.58-2.32-7.22-3.7-10.74-0.64-1.62-1.36-3.28-2.5-4.62 1.22 0.96 2.07 2.26 2.8 3.6zm2.55 33.31c-0.93-0.74-1.75-1.51-2.82-2.06-0.96-0.49-1.99-0.84-2.9-1.42 2.4-0.58 5.49 0.81 5.72 3.48zm-1.86 23.1c3.05 7.02 5.59 14.24 7.92 21.53 1.55 4.83 2.87 9.73 4.1 14.64q-1.04 0.11-2.06 0.22-1.51-5.94-3.2-11.82c-2.11-7.33-4.42-14.62-7.06-21.77-2.35-6.37-4.96-12.61-7.69-18.81q-0.11-0.24-0.21-0.48c1.18 2.14 2.45 4.25 3.52 6.45 1.62 3.32 3.2 6.64 4.68 10.04zm-6.05-23.45c-1.27-0.91-2.79-1.66-3.9-2.77 1.63-0.49 4.11 0.88 3.9 2.77zm-1.44 24.28c3.05 7.05 5.59 14.3 7.92 21.61 1.53 4.79 2.87 9.64 4.1 14.51q-1.13 0.11-2.07 0.21-1.51-5.74-3.12-11.46c-2.07-7.4-4.47-14.74-7.11-21.96-2.38-6.52-5.04-12.91-7.83-19.27q-0.11-0.26-0.23-0.52c1.21 2.19 2.5 4.36 3.59 6.62 1.65 3.4 3.25 6.8 4.75 10.26zm-5.84-24.62c-1.05-0.55-2.22-1.14-2.96-2.09 1.23-0.56 3.36 0.57 2.96 2.09zm-7.09 0.34c-1.04-0.56-2.22-1.14-2.96-2.1 1.24-0.56 3.36 0.58 2.96 2.1zm0.72 14.84q2.51 5.18 4.8 10.46c3.23 7.52 5.86 15.27 8.33 23.06 1.23 3.86 2.31 7.77 3.32 11.7q-1.12-0.34-2.3-0.54-1.04-3.93-2.14-7.86-3.32-11.8-7.47-23.33c-2.42-6.76-5.18-13.38-8.06-19.95q-0.11-0.27-0.23-0.54c1.26 2.32 2.61 4.62 3.75 7zm-7.08-13.19c-0.96-0.57-1.81-1.26-2.83-1.74-0.91-0.44-1.9-0.73-2.74-1.3 2.26-0.61 5.12 0.57 5.57 3.04zm-3.74 23.81c3.09 7.27 5.8 14.7 8.19 22.23q1.92 6.08 3.59 12.23-0.38 0.04-0.77 0.08l-1.11 0.11q-0.07 0.01-0.14 0.02-1.14-4.25-2.42-8.44c-2.37-7.74-4.71-15.48-7.49-23.08q-1.9-5.18-3.95-10.3c-1.22-3.05-2.55-6.05-3.85-9.06q-0.11-0.27-0.23-0.53c1.19 2.2 2.43 4.38 3.54 6.62q2.46 4.99 4.64 10.12zm-7.29-24.95c-1.07-0.64-2.31-0.91-3.44-1.42 3.03-0.84 6.06 1.08 6.78 4.1-1.15-0.86-2.09-1.93-3.34-2.68zm1.24-25.29c1.68 5.04 2.78 8.89-0.22 14.23 0.69-2.59 0.53-7.25-0.84-11.78-1.37-4.53-3.19-9.27-6.12-12.13 0 0 4.9 2.84 7.18 9.68zm-5.26-2.7c1.85 4.34 3.39 9.19 3.45 13.95 0.03 2.19-0.29 4.46-1.72 6.21 0.96-1.59 1.16-3.43 1.1-5.26-0.09-2.3-0.58-4.58-1.17-6.8q-0.94-3.49-2.24-6.86c-0.81-2.09-1.68-4.21-2.97-6.05-1.24-1.78-2.85-3.01-4.99-3.43 4.54 0.15 6.96 4.53 8.54 8.24zm-0.51 15.46c-1.05 1.87-3.17-6.67-4.57-10.75-1.4-4.09-3.64-8.42-2.7-9.29 1.03-0.95 4.26 3.24 5.86 8.09 1.86 5.67 2.46 10.08 1.41 11.95zm-5.75 11.24c2.35 0.54 4.53 2.68 5.19 4.99-1.52-1.71-3.37-3.37-5.66-3.9-2.06-0.49-4.16-0.78-6.23-1.22 2.13-0.49 4.58-0.36 6.7 0.13zm0.29 33.77c2.99 6.48 5.71 13.12 7.98 19.89q1.56 4.65 2.97 9.36-1.66 0.23-3.39 0.48-0.86-3.24-1.81-6.45c-2.03-6.77-4.2-13.47-6.6-20.12-2.19-6.03-4.57-12-7.24-17.84q-0.28-0.63-0.57-1.26c3.26 5.11 6.12 10.44 8.66 15.94zm-8.33-5.25c3.16 7.27 5.89 14.7 8.31 22.24q2.09 6.6 3.88 13.29-0.53 0.08-1.07 0.16-1.41-5.29-3.03-10.51c-2.38-7.64-5.14-15.15-8.08-22.59-2.71-6.87-5.63-13.71-9.05-20.26q-0.35-0.67-0.7-1.35c3.74 6.08 6.9 12.48 9.74 19.02zm-2.75 5.42c3.13 7.7 5.68 15.64 7.87 23.66q0.97 3.6 1.88 7.23-1.72 0.26-3.43 0.52c-1.1-5.93-2.3-11.85-3.77-17.7q-2.96-11.8-7.43-23.11c-1.31-3.31-2.72-6.58-4.16-9.83 3.28 6.29 6.37 12.65 9.04 19.23zm329.08 234.66q-0.33-0.51-0.67-1.18-0.35-0.67-0.66-1.41-0.31-0.74-0.55-1.46-0.24-0.71-0.38-1.31c-0.19-0.77-0.24-1.33-0.24-1.33 0 0 0.37 0.42 0.79 1.1q0.33 0.52 0.67 1.19 0.35 0.67 0.67 1.4 0.31 0.74 0.55 1.46 0.24 0.71 0.38 1.31c0.19 0.78 0.23 1.33 0.23 1.33 0 0-0.36-0.42-0.79-1.1z"/>
			<path id="&lt;Path&gt;" class="s0" d="m367.51 355.91q-0.04 0.03-0.04 0.03z"/>
			<path id="&lt;Path&gt;" class="s0" d="m305.75 390.83c-1.29 0-2.34 0.53-2.34 1.17 0 0.65 1.05 1.17 2.34 1.17 1.3 0 2.34-0.52 2.34-1.17 0-0.64-1.04-1.17-2.34-1.17z"/>
			<path id="&lt;Path&gt;" class="s0" d="m353.11 356.19c8.23-5.37 16.42-10.8 24.44-16.47q-6.51 3.73-12.93 7.63-14.38 8.72-28.47 17.9c-8.35 5.44-16.65 10.95-24.78 16.7q6.61-3.8 13.12-7.76 14.46-8.76 28.62-18z"/>
			<path id="&lt;Path&gt;" class="s0" d="m359.67 355.41c8.38-5.57 16.71-11.2 24.87-17.08q-6.63 3.9-13.16 7.95-14.56 9.03-28.82 18.5c-8.49 5.63-16.94 11.35-25.21 17.3q6.71-3.94 13.32-8.06 14.65-9.07 29-18.61z"/>
			<path id="&lt;Path&gt;" class="s0" d="m394.59 334.48q-6.72 4.01-13.34 8.18-14.75 9.29-29.21 19.02c-8.54 5.75-17.03 11.58-25.35 17.64q6.82-4.08 13.53-8.32 14.83-9.33 29.35-19.11c8.42-5.68 16.81-11.43 25.02-17.41z"/>
			<path id="&lt;Path&gt;" class="s0" d="m65.97 107.63c-0.51-0.36-1.14-0.57-1.76-0.56q-0.45 0-0.88 0.13c-0.17 0.05-0.26 0.1-0.39 0.14q-0.2 0.09-0.4 0.21c-0.5 0.3-0.89 0.72-1.14 1.18-0.26 0.47-0.4 0.95-0.49 1.41-0.31 1.88 0.09 3.4 0.34 4.42 0.26 1.03 0.41 1.61 0.41 1.61 0 0 0.08-0.63 0.1-1.71 0.03-0.55 0.02-1.17 0.1-1.87 0.04-0.69 0.21-1.45 0.44-2.15 0.25-0.69 0.69-1.2 1.12-1.37q0.03 0 0.05-0.01c0.03-0.01 0-0.01 0.09-0.04l0.19-0.05 0.09-0.03 0.03-0.01h0.01c0.09-0.03-0.1 0.03-0.08 0.03l0.03-0.01q0.2-0.03 0.4 0c0.2 0.03 0.38 0.1 0.62 0.28 0.48 0.36 1.04 1.18 1.46 2.12 0.22 0.47 0.41 1 0.57 1.49l0.13 0.43 0.12 0.41 0.25 0.87q0.16 0.55 0.32 1.1c-0.01 0.45-0.06 0.98-0.26 1.52-0.55 1.4-1.35 3.28-2.25 4.45-0.54 0.7-1.72 0.61-1.94 0.06-0.22-0.56-1.01-2.19-1.19-2.49 0.43 2.51 1.24 5.86 1.98 8.76 0.37 1.47 1.5 6.07 3.37 6-3.42-2.55 1.1-7.97 1.72-10.74-0.5 1.06-1.18 2-1.79 3-0.37 0.6-0.88 1.68-1.45 2.34-0.24 0.28-0.7 0.08-0.65-0.29 0.3-2.5 2.4-6.29 3.72-8.34q0.21 0.71 0.42 1.39c0.32 1.09 0.6 2.14 0.92 3.13q0.47 1.51 0.9 2.81 0.22 0.65 0.42 1.23 0.19 0.56 0.3 1.07 0.22 1.03 0.16 1.8c-0.02 0.51-0.12 0.91-0.21 1.18q-0.06 0.2-0.11 0.3-0.05 0.1-0.05 0.1 0 0 0.06-0.09 0.07-0.09 0.17-0.28c0.14-0.24 0.32-0.63 0.44-1.15 0.12-0.52 0.19-1.17 0.14-1.91-0.03-0.75-0.23-1.57-0.4-2.46-0.37-1.78-0.8-3.85-1.26-6.07-0.46-2.22-1.05-4.57-1.66-6.91q-0.23-0.88-0.48-1.76-0.26-0.89-0.62-1.73c-0.48-1.11-1.1-2.21-2.13-2.94z"/>
			<path id="&lt;Path&gt;" class="s0" d="m63.82 111.01q0 0-0.07 0.01-0.07 0.01-0.19 0.05c-0.16 0.05-0.39 0.15-0.59 0.41q-0.16 0.2-0.24 0.5-0.07 0.3 0.01 0.63c0.11 0.44 0.43 0.84 0.86 1.04 0.43 0.22 0.97 0.2 1.35 0q0.27-0.14 0.47-0.36 0.2-0.23 0.27-0.46c0.1-0.3 0.06-0.56 0.01-0.72-0.05-0.16-0.12-0.23-0.12-0.23 0 0-0.01 0.09-0.07 0.23-0.05 0.13-0.15 0.31-0.3 0.45q-0.12 0.11-0.25 0.17-0.14 0.06-0.32 0.09-0.32 0.04-0.58-0.1-0.28-0.15-0.43-0.41-0.15-0.25-0.11-0.56c0.02-0.19 0.11-0.39 0.17-0.52q0.12-0.21 0.13-0.22z"/>
			<path id="&lt;Path&gt;" class="s0" d="m70.74 132.16c0 0-0.01 0.09-0.07 0.23-0.05 0.13-0.15 0.31-0.31 0.45q-0.11 0.11-0.25 0.17-0.14 0.06-0.31 0.09-0.32 0.04-0.59-0.1-0.27-0.15-0.43-0.41-0.14-0.25-0.11-0.56c0.03-0.19 0.11-0.39 0.18-0.52q0.11-0.21 0.12-0.22 0 0-0.06 0.01-0.07 0-0.19 0.04c-0.16 0.06-0.39 0.16-0.6 0.42q-0.16 0.2-0.23 0.49-0.07 0.31 0.01 0.64c0.1 0.44 0.42 0.83 0.86 1.04 0.43 0.22 0.96 0.2 1.34 0q0.28-0.14 0.48-0.36 0.2-0.23 0.27-0.46c0.09-0.3 0.06-0.56 0.01-0.72-0.06-0.16-0.12-0.23-0.12-0.23z"/>
			<path id="&lt;Path&gt;" class="s0" d="m201.2 313.01c0.98 0.59 2.25 0.45 3.08-0.34 0.6-0.57 0.98-1.72 0.42-2.45-0.15 1.22-1.47 2.08-2.61 1.51-1.28-0.65-0.97-1.97-0.36-2.97-2.19 0.41-2.29 3.21-0.53 4.25z"/>
			<path id="&lt;Path&gt;" class="s0" d="m209.74 347.1c0.56-0.54 0.92-1.62 0.37-2.29-0.15 1.02-1.23 1.78-2.24 1.4-0.55-0.21-0.97-0.74-0.99-1.33-0.03-0.53 0.23-0.98 0.48-1.43-2.15 0.27-2.11 3.09-0.46 4.02 0.92 0.52 2.08 0.36 2.84-0.37z"/>
			<path id="&lt;Compound Path&gt;" class="s0" d="m212.48 354.05c0.13 2.92 0.82 4.45 1.62 5.43-0.25 0.7-2.02 5.59-2.02 5.84l2.89-4.98q0.37 0.31 0.73 0.58 0.11 0.09 0.29 0.19c0.6 0.83 1.39 1.99 1.5 2.61 0.21 1.26 0.45 4.15 0.71 6.06 0.08 0.51-0.29 0.86-0.71 1.06q-1.06-0.44-2.09-0.96-1.18-0.59-2.22-1.32c-0.63-0.46-1.22-0.98-1.65-1.54-0.78-2.1 0.04-4.26 1.11-6.81-0.63 0.95-2.3 2.59-3.09 3.35q-0.15-0.31-0.29-0.6c-0.54-1.21-0.88-2.27-1.09-3.02-0.22-0.75-0.32-1.19-0.32-1.19q0 0 0.03 0.32 0.01 0.32 0.08 0.91c0.1 0.78 0.3 1.9 0.75 3.19q0.32 0.98 0.82 2.05c0.33 0.71 0.68 1.43 1.14 2.18 0.52 0.77 1.17 1.42 1.91 1.97q1.12 0.81 2.35 1.43 1.23 0.62 2.48 1.1 1.25 0.49 2.46 0.87c1.61 0.52 3.13 0.92 4.44 1.23 2.62 0.62 4.39 0.92 4.39 0.92q0 0-0.31-0.12c0.88 0.2 1.74 0.35 2.35 0.35 0.92 0 1.87-1.86 1.49-4.51-0.49-3.45-3.61-5.38-6.63-6.49 0 0-8.5-2.9-10.06-4.07-1.57-1.18-2.61-3.81-3.06-6.03zm14.17 11.43q0.02 0.02 0.04 0.05c0.47 0.66 1.01 1.51 1.42 2.38q0.11-0.01 0.22-0.02c1.69 0 3.06 1.3 3.06 2.91 0 1.6-1.37 2.91-3.06 2.91-0.62 0-1.2-0.18-1.68-0.48-0.45 0.25-0.88 0.43-1.19 0.53q-0.46-0.16-0.98-0.34-0.86-0.29-1.82-0.63-0.12-0.08-0.25-0.17l-1.44-7.3c0.03 0.18 0.19 4.72 0.24 6.29-0.48-0.49-0.86-1.05-0.97-1.65-0.58-3.04-0.67-3.28-0.67-4.38 0-0.87 0.5-2.01 1.25-2.31 2.14 0.85 4.42 1.69 5.83 2.21z"/>
			<path id="&lt;Path&gt;" class="s0" d="m207.95 333.13c-0.34 1.16-2.82 4.68-3.18 5.11-0.52 0.61-1.02 0.13-1.32-0.32q-0.07-0.3-0.13-0.6-0.1-0.46-0.2-0.92c0.45-2.24 3.46-7.54 3.46-7.54 0 0-3.91 5.41-4.49 2.8q-0.09-0.4-0.11-0.44-0.42-1.86-0.8-3.39c-0.63-2.58-1.13-4.29-1.13-4.29 0 0 0.16 1.77 0.54 4.4 0.19 1.32 0.44 2.85 0.73 4.48q0.21 1.23 0.46 2.52 0.26 1.28 0.52 2.59 0.29 1.3 0.57 2.58 0.29 1.28 0.59 2.49c0.39 1.62 0.79 3.12 1.16 4.39 0.72 2.56 1.31 4.24 1.31 4.24 0 0-0.25-1.76-0.73-4.37q-0.16-0.86-0.34-1.83c0.09-1.89 0.98-3.08 2.34-5.29 1.45-2.37 3.15-1.47 3.45 1.03 0 0-1.28-8.09-2.03-15 0.09 2.72-0.12 5.5-0.67 7.36z"/>
			<path id="&lt;Path&gt;" class="s0" d="m228.07 371.56c-1.28-0.56-1-1.85-0.44-2.81-2.28 0.31-2.12 3.31-0.32 4.18 0.97 0.46 2.15 0.24 2.87-0.56 0.51-0.55 0.79-1.59 0.28-2.23-0.16 1.1-1.33 1.89-2.39 1.42z"/>
			<path id="&lt;Path&gt;" class="s0" d="m200.4 277.19q-0.11-0.33-0.3-0.77c-0.14-0.3-0.33-0.63-0.62-0.92-0.58-0.6-1.51-0.97-2.47-1.21-0.94-0.24-1.95-0.51-2.97-0.77-1.01-0.26-2.02-0.52-2.98-0.75-0.95-0.23-1.85-0.42-2.61-0.6-0.77-0.18-1.41-0.3-1.86-0.4-0.45-0.09-0.71-0.14-0.71-0.14 0 0 0.25 0.09 0.68 0.24 0.44 0.14 1.06 0.36 1.81 0.58 0.76 0.23 1.63 0.5 2.57 0.77 0.95 0.27 1.96 0.54 2.97 0.8 1.02 0.26 2.04 0.51 3 0.71q0.72 0.15 1.33 0.37 0.62 0.23 1.04 0.61c0.56 0.5 0.83 1.12 1.03 1.52 0.2 0.41 0.33 0.64 0.33 0.64 0 0-0.09-0.24-0.24-0.68z"/>
			<path id="&lt;Path&gt;" class="s0" d="m114.21 232.03c2.52 0.89 5.11 1.6 7.7 2.27 2.65 0.69 5.33 1.34 8.03 1.8 5.57 0.94 11.13 1.63 16.78 2 9.85 0.66 19.75 0.18 29.59-0.55-4.92 0.07-9.84 0.16-14.76 0.1-11.09-0.12-22.26-0.71-33.17-2.86-5.34-1.05-10.6-2.35-15.78-4-4.14-1.33-8.18-2.9-12.21-4.52 1.89 0.9 3.76 1.84 5.7 2.63q4.02 1.67 8.12 3.13z"/>
			<path id="&lt;Path&gt;" class="s0" d="m174.78 244.85c1.92 0 3.48 1.56 3.48 3.48 0 1.09-0.51 2.05-1.29 2.69-0.23 2.55-2.98 5.63-8.28 8.41 3.7-0.95 7-2.15 9.39-3.63 2.38-1.49 4.01-9.42-0.72-12.06-3.85-2.15-16.39 0.06-24.8-0.05 2.36 0.97 13.58 1.13 19.46 2.54 0.63-0.84 1.63-1.38 2.76-1.38z"/>
			<path id="&lt;Path&gt;" class="s0" d="m125.32 236.89c5.35 1.1 10.74 1.94 16.19 2.39 9.56 0.79 19.11 0.57 28.66-0.17-4.78 0.07-9.55 0.11-14.33 0.01-10.73-0.22-21.51-1.25-32-3.56-5.15-1.14-10.28-2.54-15.22-4.38q-3.61-1.33-7.17-2.83c-1.57-0.66-3.1-1.43-4.65-2.14 4.39 2.37 8.84 4.66 13.54 6.33 4.91 1.74 9.87 3.3 14.98 4.35z"/>
			<path id="&lt;Path&gt;" class="s0" d="m72.66 227.5c1.08 0.56 2.41 0.36 3.29-0.47 0.69-0.65 1.09-1.89 0.52-2.74-0.12 1.46-1.69 2.53-3.06 1.84-0.67-0.33-1.13-1.04-1.11-1.79 0.03-0.66 0.39-1.2 0.75-1.73-1.01 0.24-1.83 1.01-1.96 2.07-0.15 1.16 0.55 2.29 1.57 2.82z"/>
			<path id="&lt;Path&gt;" class="s0" d="m173.63 250.3c0.91 0.52 2.07 0.36 2.82-0.36 0.55-0.53 0.9-1.61 0.36-2.28-0.16 1.02-1.22 1.76-2.22 1.38-0.53-0.21-0.94-0.72-0.98-1.3-0.02-0.52 0.24-0.97 0.48-1.42-2.14 0.26-2.1 3.06-0.46 3.98z"/>
			<path id="&lt;Path&gt;" class="s0" d="m115.4 258.35c0.88-2.19 2.59-4.2 4.07-6.03 1.44-1.78 5.37-7.02 7.72-7.73 2.56-0.77-0.47 2.99-1.2 4.23-1.69 2.85-3.3 5.83-5.18 8.63 3.74-3.85 7.13-7.85 11.35-11.26 2.67-2.16 4.73-2.42 7.83-3.27-7.34-0.16-23.15-2.89-27.76-5.03 1.71 0.9 6.25 3.33 7.34 4.37 1.75 1.66-3.64 7.3-4.85 9.1-0.82 1.24-5.65 7.91-7.25 4.12-0.43-1.02 0.1-1.94-1.39-2.17-1.8-0.28-3.11 1.19-4.55 1.94-1.97 1-3.84 0.26-5.91-0.12 9.71 5.77 33.37 8.66 33.37 8.66 0 0-14.63-2.85-13.59-5.44z"/>
			<path id="&lt;Path&gt;" class="s0" d="m112.23 237.89c-0.41-0.21-0.66-0.34-0.66-0.34q0.28 0.17 0.66 0.34z"/>
			<path id="&lt;Path&gt;" class="s0" d="m87.27 241.35c0 0 0.28-0.29 0.73-0.76-0.48 0.47-0.73 0.76-0.73 0.76z"/>
			<path id="&lt;Path&gt;" class="s0" d="m88 240.59c1.98-1.96 7.76-6.96 14.43-6.12-3.39-1.17-10.68-5.21-13.81-8.26 0 0 5.52 5.63 5.39 6.78-0.14 1.3-4.3 5.79-6.01 7.6z"/>
			<path id="&lt;Path&gt;" class="s0" d="m72.5 209.88c-0.15 1.28-1.49 2.23-2.72 1.68-0.58-0.26-1.03-0.82-1.09-1.46-0.05-0.68 0.31-1.23 0.64-1.77-2.28 0.46-2.38 3.39-0.52 4.49 1.04 0.6 2.34 0.45 3.22-0.36 0.65-0.61 1.02-1.78 0.47-2.58z"/>
			<path id="&lt;Path&gt;" class="s0" d="m77.71 243.96c-2.43-2.31-4.37-5.07-6.45-7.68q1.26 2.41 2.78 4.67c1.18 1.74 2.51 3.37 4.08 4.76 1.55 1.38 3.31 2.53 5.07 3.61 2.7 1.64 5.48 3.16 8.34 4.48-1.37-1.02-2.8-1.95-4.22-2.9-3.28-2.16-6.74-4.22-9.6-6.94z"/>
			<path id="&lt;Path&gt;" class="s0" d="m154.73 262.27q0.71-0.15 1.41-0.3c0.47-0.09 0.92-0.22 1.36-0.33q1.33-0.36 2.37-0.74c1.37-0.47 2.25-0.91 2.25-0.91 0 0-0.25 0.02-0.67 0.08-0.42 0.06-1.02 0.14-1.73 0.26q-1.08 0.17-2.42 0.41c-0.89 0.15-1.82 0.34-2.77 0.51q-0.7 0.14-1.4 0.28-0.69 0.13-1.35 0.27-1.34 0.27-2.41 0.52-1.07 0.24-1.7 0.41c-0.41 0.11-0.64 0.18-0.64 0.18 0 0 0.97 0.07 2.42 0q1.11-0.05 2.47-0.21 0.68-0.07 1.39-0.18 0.7-0.12 1.42-0.25z"/>
			<path id="&lt;Path&gt;" class="s0" d="m127.37 149.4q-0.01-0.01-0.01-0.01 0 0 0 0.01 0.05 0.06 0.01 0z"/>
			<path id="&lt;Path&gt;" class="s0" d="m128.36 141c-0.52-0.61-1.4-0.76-2.02-1.29-0.79-0.69-1.13-1.47-1.52-2.36-0.34 1.97-0.37 4.09 0.11 6.45 0.46 2.26 1.05 3.87 2.43 5.59-0.37-1-0.41-2.28 0-3.29 0.67-1.65 2.58-3.26 1-5.1z"/>
			<path id="&lt;Path&gt;" class="s0" d="m146.09 143.33c-1.67 0.75-3.4 0.78-5.05 1.51-1.78 0.78-3.24 2.15-5.13 2.72-0.47 0.14-0.96 0.16-1.44 0.28-0.65 0.17-1.72 1.08-2.27 1.08 1.64 0.01 6.61-0.76 8.34-1.02 3-0.46 6.04-0.85 9.05-1.41 1.14-0.21 1.95-1.23 1.87-2.38-0.2-3.27-0.72-9.79-1.03-11.37-0.23 3.57-0.56 8.88-4.34 10.59z"/>
			<path id="&lt;Path&gt;" class="s0" d="m155.14 145.35c4.47-0.57 14.61-1.87 14.66-2.02 0.07-0.2-1.43-10.59-1.43-10.59-1.37 3.82 0.25 6.21-7.17 6.34-7.21 0.13-6.17-2.78-9.36-5.71l1.02 10.16c0.12 1.14 1.15 1.96 2.28 1.82z"/>
			<path id="&lt;Path&gt;" class="s0" d="m165.75 133.34c0.59-0.03 1.06-0.51 1.04-1.09-0.03-0.57-0.53-1.02-1.13-0.99-0.6 0.02-1.07 0.51-1.04 1.08 0.02 0.58 0.53 1.02 1.13 1z"/>
		</g>
	</g>
</svg>